<svg width="28" height="28" viewBox="0 0 28 28" fill="none" xmlns="http://www.w3.org/2000/svg">
<path d="M14.9334 18.4L18.4 14.9333C18.6445 14.6888 18.7667 14.3777 18.7667 14C18.7667 13.6222 18.6445 13.3111 18.4 13.0666L14.9 9.56663C14.6556 9.32218 14.3498 9.20529 13.9827 9.21596C13.6156 9.22663 13.3102 9.35463 13.0667 9.59996C12.8222 9.8444 12.7 10.1555 12.7 10.5333C12.7 10.9111 12.8222 11.2222 13.0667 11.4666L14.2667 12.6666H9.96669C9.58891 12.6666 9.2778 12.7946 9.03335 13.0506C8.78891 13.3066 8.66669 13.6231 8.66669 14C8.66669 14.3777 8.79469 14.6946 9.05069 14.9506C9.30669 15.2066 9.62313 15.3342 10 15.3333H14.2667L13.0334 16.5666C12.7889 16.8111 12.672 17.1168 12.6827 17.484C12.6934 17.8511 12.8214 18.1564 13.0667 18.4C13.3111 18.6444 13.6222 18.7666 14 18.7666C14.3778 18.7666 14.6889 18.6444 14.9334 18.4ZM14 27.3333C12.1556 27.3333 10.4222 26.9831 8.80002 26.2826C7.1778 25.5822 5.76669 24.6324 4.56669 23.4333C3.36669 22.2333 2.41691 20.8222 1.71735 19.2C1.0178 17.5777 0.667576 15.8444 0.666687 14C0.666687 12.1555 1.01691 10.4222 1.71735 8.79996C2.4178 7.17774 3.36758 5.76663 4.56669 4.56663C5.76669 3.36663 7.1778 2.41685 8.80002 1.71729C10.4222 1.01774 12.1556 0.667515 14 0.666626C15.8445 0.666626 17.5778 1.01685 19.2 1.71729C20.8222 2.41774 22.2334 3.36752 23.4334 4.56663C24.6334 5.76663 25.5836 7.17774 26.284 8.79996C26.9845 10.4222 27.3342 12.1555 27.3334 14C27.3334 15.8444 26.9831 17.5777 26.2827 19.2C25.5822 20.8222 24.6325 22.2333 23.4334 23.4333C22.2334 24.6333 20.8222 25.5835 19.2 26.284C17.5778 26.9844 15.8445 27.3342 14 27.3333Z" fill="#DE008E"/>
</svg>
