<svg width="28" height="28" viewBox="0 0 28 28" fill="none" xmlns="http://www.w3.org/2000/svg">
<path d="M13.0667 18.4L9.6 14.9333C9.35556 14.6888 9.23334 14.3777 9.23334 14C9.23334 13.6222 9.35556 13.3111 9.6 13.0666L13.1 9.56663C13.3444 9.32218 13.6502 9.20529 14.0173 9.21596C14.3844 9.22663 14.6898 9.35463 14.9333 9.59996C15.1778 9.8444 15.3 10.1555 15.3 10.5333C15.3 10.9111 15.1778 11.2222 14.9333 11.4666L13.7333 12.6666H18.0333C18.4111 12.6666 18.7222 12.7946 18.9667 13.0506C19.2111 13.3066 19.3333 13.6231 19.3333 14C19.3333 14.3777 19.2053 14.6946 18.9493 14.9506C18.6933 15.2066 18.3769 15.3342 18 15.3333H13.7333L14.9667 16.5666C15.2111 16.8111 15.328 17.1168 15.3173 17.484C15.3067 17.8511 15.1787 18.1564 14.9333 18.4C14.6889 18.6444 14.3778 18.7666 14 18.7666C13.6222 18.7666 13.3111 18.6444 13.0667 18.4ZM14 27.3333C15.8444 27.3333 17.5778 26.9831 19.2 26.2826C20.8222 25.5822 22.2333 24.6324 23.4333 23.4333C24.6333 22.2333 25.5831 20.8222 26.2827 19.2C26.9822 17.5777 27.3324 15.8444 27.3333 14C27.3333 12.1555 26.9831 10.4222 26.2827 8.79996C25.5822 7.17774 24.6324 5.76663 23.4333 4.56663C22.2333 3.36663 20.8222 2.41685 19.2 1.71729C17.5778 1.01774 15.8444 0.667515 14 0.666626C12.1556 0.666626 10.4222 1.01685 8.8 1.71729C7.17778 2.41774 5.76667 3.36752 4.56667 4.56663C3.36667 5.76663 2.41645 7.17774 1.716 8.79996C1.01556 10.4222 0.665779 12.1555 0.666668 14C0.666668 15.8444 1.01689 17.5777 1.71733 19.2C2.41778 20.8222 3.36756 22.2333 4.56667 23.4333C5.76667 24.6333 7.17778 25.5835 8.8 26.284C10.4222 26.9844 12.1556 27.3342 14 27.3333Z" fill="#DE008E"/>
</svg>
