<svg width="28" height="28" viewBox="0 0 28 28" fill="none" xmlns="http://www.w3.org/2000/svg">
<mask id="mask0_304_612" style="mask-type:luminance" maskUnits="userSpaceOnUse" x="0" y="0" width="28" height="28">
<path d="M3.375 10.25H10.25V3.375C10.25 3.04348 10.3817 2.72554 10.6161 2.49112C10.8505 2.2567 11.1685 2.125 11.5 2.125H16.5C16.8315 2.125 17.1495 2.2567 17.3839 2.49112C17.6183 2.72554 17.75 3.04348 17.75 3.375V10.25H24.625C24.9565 10.25 25.2745 10.3817 25.5089 10.6161C25.7433 10.8505 25.875 11.1685 25.875 11.5V16.5C25.875 16.8315 25.7433 17.1495 25.5089 17.3839C25.2745 17.6183 24.9565 17.75 24.625 17.75H17.75V24.625C17.75 24.9565 17.6183 25.2745 17.3839 25.5089C17.1495 25.7433 16.8315 25.875 16.5 25.875H11.5C11.1685 25.875 10.8505 25.7433 10.6161 25.5089C10.3817 25.2745 10.25 24.9565 10.25 24.625V17.75H3.375C3.04348 17.75 2.72554 17.6183 2.49112 17.3839C2.2567 17.1495 2.125 16.8315 2.125 16.5V11.5C2.125 11.1685 2.2567 10.8505 2.49112 10.6161C2.72554 10.3817 3.04348 10.25 3.375 10.25Z" fill="white" stroke="white" stroke-width="4" stroke-linecap="round" stroke-linejoin="round"/>
</mask>
<g mask="url(#mask0_304_612)">
<path d="M-1 -1H29V29H-1V-1Z" fill="#DE008E"/>
</g>
</svg>
